<svg width="381" height="202" viewBox="0 0 381 202" fill="none" xmlns="http://www.w3.org/2000/svg">
<path d="M123.4 158C167.031 158 202.4 122.63 202.4 79C202.4 35.3695 167.031 0 123.4 0C79.77 0 44.4005 35.3695 44.4005 79C44.4005 122.63 79.77 158 123.4 158Z" fill="#21303F"/>
<path d="M100.548 137.871L76.9319 133.596L69.2722 175.908L92.8884 180.183L100.548 137.871Z" fill="#21303F"/>
<path d="M147.78 146.421L124.164 142.146L116.505 184.458L140.121 188.733L147.78 146.421Z" fill="#21303F"/>
<path d="M153.578 194.597C154.65 190.596 146.87 185.035 136.201 182.176C125.531 179.318 116.013 180.243 114.941 184.244C113.869 188.245 121.649 193.806 132.319 196.665C142.988 199.524 152.506 198.598 153.578 194.597Z" fill="#21303F"/>
<path d="M104.578 187.597C105.65 183.596 97.8701 178.035 87.2008 175.176C76.5315 172.318 67.0132 173.243 65.9411 177.244C64.8691 181.245 72.6492 186.806 83.3185 189.665C93.9878 192.524 103.506 191.598 104.578 187.597Z" fill="#21303F"/>
<path d="M128.931 86.6761C143.843 86.6761 155.931 74.5878 155.931 59.6761C155.931 44.7645 143.843 32.6761 128.931 32.6761C114.019 32.6761 101.931 44.7645 101.931 59.6761C101.931 74.5878 114.019 86.6761 128.931 86.6761Z" fill="white"/>
<path d="M140.028 58.998C144.999 58.998 149.028 54.9686 149.028 49.998C149.028 45.0275 144.999 40.998 140.028 40.998C135.058 40.998 131.028 45.0275 131.028 49.998C131.028 54.9686 135.058 58.998 140.028 58.998Z" fill="#21303F"/>
<path d="M199.117 76.6943C220.38 71.8203 236.378 62.4577 234.848 55.7823C233.318 49.1069 214.839 47.6467 193.576 52.5207C172.312 57.3947 156.314 66.7573 157.845 73.4326C159.375 80.108 177.853 81.5683 199.117 76.6943Z" fill="#21303F"/>
<path d="M44.0425 102.483C65.3063 97.6089 81.3036 88.2462 79.7735 81.5709C78.2434 74.8955 59.7653 73.4352 38.5015 78.3092C17.2377 83.1832 1.24039 92.5458 2.77049 99.2212C4.30059 105.897 22.7787 107.357 44.0425 102.483Z" fill="#21303F"/>
<path d="M101.703 110.133C100.853 114.83 101.903 119.673 104.624 123.596C107.344 127.519 111.511 130.201 116.209 131.051C120.906 131.902 125.749 130.851 129.672 128.131C133.595 125.411 136.277 121.243 137.127 116.546C138.898 106.764 131.335 103.302 121.553 101.531C111.771 99.7604 103.474 100.351 101.703 110.133Z" fill="white"/>
<path d="M249 100C249 93.9249 253.925 89 260 89H370C376.075 89 381 93.9249 381 100V100C381 106.075 376.075 111 370 111H260C253.925 111 249 106.075 249 100V100Z" fill="url(#paint0_linear)"/>
<path opacity="0.3" d="M376 20H254C251.239 20 249 22.2386 249 25V36C249 38.7614 251.239 41 254 41H376C378.761 41 381 38.7614 381 36V25C381 22.2386 378.761 20 376 20Z" fill="#2F4152"/>
<path opacity="0.3" d="M376 53H254C251.239 53 249 55.2386 249 58V69C249 71.7614 251.239 74 254 74H376C378.761 74 381 71.7614 381 69V58C381 55.2386 378.761 53 376 53Z" fill="#2F4152"/>
<defs>
<linearGradient id="paint0_linear" x1="284.391" y1="100.2" x2="808.011" y2="93.9026" gradientUnits="userSpaceOnUse">
<stop stop-color="#19A9A4"/>
<stop offset="1" stop-color="#FF099E"/>
</linearGradient>
</defs>
</svg>
