<svg width="95" height="104" viewBox="0 0 95 104" fill="none" xmlns="http://www.w3.org/2000/svg">
<path d="M84.0182 73.7455H34.8546C33.2881 73.7455 32.0182 75.0154 32.0182 76.5818C32.0182 78.1483 33.2881 79.4182 34.8546 79.4182H84.0182C85.5847 79.4182 86.8546 78.1483 86.8546 76.5818C86.8546 75.0154 85.5847 73.7455 84.0182 73.7455Z" fill="white"/>
<path d="M81.0541 86.0364H34.8546C33.2881 86.0364 32.0182 87.3063 32.0182 88.8727C32.0182 90.4392 33.2881 91.7091 34.8546 91.7091H81.0541C82.6206 91.7091 83.8905 90.4392 83.8905 88.8727C83.8905 87.3063 82.6206 86.0364 81.0541 86.0364Z" fill="white"/>
<path d="M66.9745 98.3273H34.8546C33.2881 98.3273 32.0182 99.5972 32.0182 101.164C32.0182 102.73 33.2881 104 34.8546 104H66.9745C68.541 104 69.8108 102.73 69.8108 101.164C69.8108 99.5972 68.541 98.3273 66.9745 98.3273Z" fill="white"/>
<path opacity="0.3" d="M89.4182 0H29.4546C26.6932 0 24.4546 2.23858 24.4546 5V57.4C24.4546 60.1614 26.6932 62.4 29.4546 62.4H89.4182C92.1796 62.4 94.4182 60.1614 94.4182 57.4V5C94.4182 2.23858 92.1796 0 89.4182 0Z" fill="#2F4152"/>
<path d="M80.5697 18.906L23.1318 1.68611C20.4867 0.893102 17.6995 2.39453 16.9065 5.03964L1.8587 55.2325C1.06569 57.8776 2.56712 60.6647 5.21223 61.4577L62.6501 78.6777C65.2952 79.4707 68.0824 77.9692 68.8754 75.3241L83.9232 25.1313C84.7162 22.4862 83.2148 19.699 80.5697 18.906Z" fill="#2F4152"/>
</svg>
