<svg width="127" height="100" viewBox="0 0 127 100" fill="none" xmlns="http://www.w3.org/2000/svg">
<path d="M120.83 55.3099H72.7546C69.9932 55.3099 67.7546 57.5485 67.7546 60.3099V94.5579C67.7546 97.3193 69.9932 99.5579 72.7546 99.5579H120.83C123.591 99.5579 125.83 97.3193 125.83 94.5579V60.3099C125.83 57.5485 123.591 55.3099 120.83 55.3099Z" fill="white"/>
<path d="M112.068 71.0536H80.0673C78.9627 71.0536 78.0672 71.949 78.0672 73.0536C78.0672 74.1582 78.9627 75.0537 80.0673 75.0537H112.068C113.173 75.0537 114.068 74.1582 114.068 73.0536C114.068 71.949 113.173 71.0536 112.068 71.0536Z" fill="#F2F2F2"/>
<path d="M110.468 79.0537H80.0673C78.9627 79.0537 78.0672 79.9492 78.0672 81.0538C78.0672 82.1584 78.9627 83.0538 80.0673 83.0538H110.468C111.573 83.0538 112.468 82.1584 112.468 81.0538C112.468 79.9492 111.573 79.0537 110.468 79.0537Z" fill="#F2F2F2"/>
<path d="M100.868 87.0538H80.0673C78.9627 87.0538 78.0672 87.9493 78.0672 89.0539C78.0672 90.1585 78.9627 91.0539 80.0673 91.0539H100.868C101.972 91.0539 102.868 90.1585 102.868 89.0539C102.868 87.9493 101.972 87.0538 100.868 87.0538Z" fill="#F2F2F2"/>
<path d="M78.8166 64.9891C78.8166 64.2254 79.4357 63.6063 80.1994 63.6063H84.3476C85.1113 63.6063 85.7304 64.2254 85.7304 64.9891V64.9891C85.7304 65.7527 85.1113 66.3718 84.3476 66.3718H80.1994C79.4357 66.3718 78.8166 65.7527 78.8166 64.9891V64.9891Z" fill="url(#paint0_linear)"/>
<path d="M53.0754 55.3099H5C2.23858 55.3099 0 57.5485 0 60.3099V94.5579C0 97.3193 2.23857 99.5579 5 99.5579H53.0754C55.8368 99.5579 58.0754 97.3193 58.0754 94.5579V60.3099C58.0754 57.5485 55.8368 55.3099 53.0754 55.3099Z" fill="white"/>
<path d="M44.3134 71.0536H12.3126C11.208 71.0536 10.3126 71.949 10.3126 73.0536C10.3126 74.1582 11.208 75.0537 12.3126 75.0537H44.3134C45.418 75.0537 46.3134 74.1582 46.3134 73.0536C46.3134 71.949 45.418 71.0536 44.3134 71.0536Z" fill="#F2F2F2"/>
<path d="M42.7133 79.0537H12.3126C11.208 79.0537 10.3126 79.9492 10.3126 81.0538C10.3126 82.1584 11.208 83.0538 12.3126 83.0538H42.7133C43.8179 83.0538 44.7134 82.1584 44.7134 81.0538C44.7134 79.9492 43.8179 79.0537 42.7133 79.0537Z" fill="#F2F2F2"/>
<path d="M33.1131 87.0538H12.3126C11.208 87.0538 10.3126 87.9493 10.3126 89.0539C10.3126 90.1585 11.208 91.0539 12.3126 91.0539H33.1131C34.2177 91.0539 35.1132 90.1585 35.1132 89.0539C35.1132 87.9493 34.2177 87.0538 33.1131 87.0538Z" fill="#F2F2F2"/>
<path d="M11.062 64.9892C11.062 65.7529 11.6811 66.3719 12.4447 66.3719H16.593C17.3566 66.3719 17.9757 65.7529 17.9757 64.9892V64.9892C17.9757 64.2255 17.3566 63.6065 16.593 63.6065H12.4447C11.6811 63.6065 11.062 64.2255 11.062 64.9892V64.9892Z" fill="url(#paint1_linear)"/>
<path d="M53.0754 0H5C2.23858 0 0 2.23858 0 5V39.2479C0 42.0093 2.23857 44.2479 5 44.2479H53.0754C55.8368 44.2479 58.0754 42.0093 58.0754 39.2479V5C58.0754 2.23858 55.8368 0 53.0754 0Z" fill="white"/>
<path d="M44.3134 15.7437H12.3126C11.208 15.7437 10.3126 16.6391 10.3126 17.7437C10.3126 18.8483 11.208 19.7437 12.3126 19.7437H44.3134C45.418 19.7437 46.3134 18.8483 46.3134 17.7437C46.3134 16.6391 45.418 15.7437 44.3134 15.7437Z" fill="#F2F2F2"/>
<path d="M42.7133 23.7439H12.3126C11.208 23.7439 10.3126 24.6393 10.3126 25.7439C10.3126 26.8485 11.208 27.744 12.3126 27.744H42.7133C43.8179 27.744 44.7134 26.8485 44.7134 25.7439C44.7134 24.6393 43.8179 23.7439 42.7133 23.7439Z" fill="#F2F2F2"/>
<path d="M33.1131 31.7439H12.3126C11.208 31.7439 10.3126 32.6393 10.3126 33.7439C10.3126 34.8485 11.208 35.744 12.3126 35.744H33.1131C34.2177 35.744 35.1132 34.8485 35.1132 33.7439C35.1132 32.6393 34.2177 31.7439 33.1131 31.7439Z" fill="#F2F2F2"/>
<path d="M11.062 9.67926C11.062 8.91559 11.6811 8.29651 12.4447 8.29651H16.593C17.3566 8.29651 17.9757 8.91559 17.9757 9.67926V9.67926C17.9757 10.4429 17.3566 11.062 16.593 11.062L12.4447 11.062C11.6811 11.062 11.062 10.4429 11.062 9.67926V9.67926Z" fill="url(#paint2_linear)"/>
<path d="M121.444 0.0351122L72.2425 0.00323906C69.4811 0.00145018 67.2404 2.23858 67.2379 5L67.2062 39.2096C67.2037 41.971 69.4402 44.211 72.2016 44.2128L121.403 44.2447C124.164 44.2465 126.405 42.0094 126.408 39.2479L126.439 5.03835C126.442 2.27693 124.205 0.0369011 121.444 0.0351122Z" fill="#2F4152"/>
<defs>
<linearGradient id="paint0_linear" x1="78.8166" y1="65.0066" x2="86.4478" y2="65.0098" gradientUnits="userSpaceOnUse">
<stop stop-color="#CB26F4"/>
<stop offset="1" stop-color="#5266EE"/>
</linearGradient>
<linearGradient id="paint1_linear" x1="12.9157" y1="64.9641" x2="40.3445" y2="65.1015" gradientUnits="userSpaceOnUse">
<stop stop-color="#0AD3CD"/>
<stop offset="1" stop-color="#FF099E"/>
</linearGradient>
<linearGradient id="paint2_linear" x1="8.29649" y1="9.67926" x2="16.3611" y2="9.70065" gradientUnits="userSpaceOnUse">
<stop stop-color="#FBB726"/>
<stop offset="1" stop-color="#2EE698"/>
</linearGradient>
</defs>
</svg>
