<svg width="104" height="120" viewBox="0 0 104 120" fill="none" xmlns="http://www.w3.org/2000/svg">
<path d="M56.7188 108.75C70.9573 108.75 82.5 97.2073 82.5 82.9688C82.5 68.7302 70.9573 57.1875 56.7188 57.1875C42.4802 57.1875 30.9375 68.7302 30.9375 82.9688C30.9375 97.2073 42.4802 108.75 56.7188 108.75Z" fill="#21303F"/>
<path d="M53.4375 103.125H45V117.188H53.4375V103.125Z" fill="#21303F"/>
<path d="M68.4375 103.125H60.9375V117.188H68.4375V103.125Z" fill="#21303F"/>
<path d="M51.5625 120C55.1869 120 58.125 118.741 58.125 117.188C58.125 115.634 55.1869 114.375 51.5625 114.375C47.9381 114.375 45 115.634 45 117.188C45 118.741 47.9381 120 51.5625 120Z" fill="#21303F"/>
<path d="M67.5 119.062C71.1244 119.062 74.0625 118.013 74.0625 116.719C74.0625 115.424 71.1244 114.375 67.5 114.375C63.8756 114.375 60.9375 115.424 60.9375 116.719C60.9375 118.013 63.8756 119.062 67.5 119.062Z" fill="#21303F"/>
<path d="M57.6562 85.3125C62.575 85.3125 66.5625 81.325 66.5625 76.4062C66.5625 71.4875 62.575 67.5 57.6562 67.5C52.7375 67.5 48.75 71.4875 48.75 76.4062C48.75 81.325 52.7375 85.3125 57.6562 85.3125Z" fill="white"/>
<path d="M57.1875 75C58.7408 75 60 73.7408 60 72.1875C60 70.6342 58.7408 69.375 57.1875 69.375C55.6342 69.375 54.375 70.6342 54.375 72.1875C54.375 73.7408 55.6342 75 57.1875 75Z" fill="#21303F"/>
<path d="M79.9136 56.2583C82.8953 49.8416 83.6795 43.8809 81.6651 42.9449C79.6506 42.0088 75.6005 46.4518 72.6187 52.8686C69.637 59.2854 68.8529 65.246 70.8673 66.1821C72.8817 67.1181 76.9319 62.6751 79.9136 56.2583Z" fill="#21303F"/>
<path d="M35.2295 73.671C37.1927 72.6319 36.1008 66.7198 32.7906 60.4662C29.4804 54.2125 25.2054 49.9854 23.2422 51.0245C21.279 52.0637 22.3709 57.9757 25.6812 64.2294C28.9914 70.483 33.2663 74.7102 35.2295 73.671Z" fill="#21303F"/>
<path d="M88.8958 1.08782L4.88024 19.8146C2.18496 20.4153 0.487018 23.0873 1.08779 25.7826L8.16245 57.5223C8.76322 60.2176 11.4352 61.9156 14.1305 61.3148L98.1461 42.5881C100.841 41.9873 102.539 39.3153 101.939 36.62L94.8639 4.88027C94.2631 2.18499 91.5911 0.487048 88.8958 1.08782Z" fill="white"/>
<path d="M76.4098 14.1497C76.1576 12.95 76.9257 11.7731 78.1253 11.521L85.708 9.92722C86.9076 9.67507 88.0845 10.4432 88.3367 11.6428V11.6428C88.5888 12.8424 87.8207 14.0193 86.6211 14.2715L79.0384 15.8652C77.8388 16.1174 76.6619 15.3493 76.4098 14.1497V14.1497Z" fill="url(#paint0_linear)"/>
<path d="M52.953 17.3736L15.2974 26.0162C14.0976 26.2915 13.3482 27.4874 13.6236 28.6872C13.899 29.887 15.0949 30.6364 16.2947 30.361L53.9503 21.7185C55.1501 21.4431 55.8995 20.2472 55.6241 19.0474C55.3487 17.8476 54.1529 17.0982 52.953 17.3736Z" fill="#F2F2F2"/>
<path d="M52.8434 27.3086L17.4581 35.4301C16.2583 35.7055 15.5089 36.9013 15.7843 38.1011C16.0596 39.301 17.2555 40.0504 18.4553 39.775L53.8406 31.6535C55.0404 31.3781 55.7898 30.1822 55.5144 28.9824C55.2391 27.7826 54.0432 27.0332 52.8434 27.3086Z" fill="#F2F2F2"/>
<path d="M44.2201 39.1975L19.6187 44.8439C18.4189 45.1193 17.6695 46.3152 17.9449 47.515C18.2203 48.7148 19.4161 49.4642 20.6159 49.1888L45.2173 43.5424C46.4171 43.267 47.1665 42.0711 46.8912 40.8713C46.6158 39.6715 45.4199 38.9221 44.2201 39.1975Z" fill="#F2F2F2"/>
<defs>
<linearGradient id="paint0_linear" x1="76.4156" y1="14.1772" x2="108.028" y2="8.85808" gradientUnits="userSpaceOnUse">
<stop stop-color="#FBBA24"/>
<stop offset="0.889142" stop-color="#FF099E"/>
</linearGradient>
</defs>
</svg>
